<svg width="61" height="60" viewBox="0 0 61 60" fill="none" xmlns="http://www.w3.org/2000/svg">
    <g clip-path="url(#a1b7tpt27a)" stroke-width="3" stroke-linecap="round" stroke-linejoin="round">
        <path d="m40.125 47.22 1.26 7.144c.174.956.058 1.825-.246 2.448s-.811 1.015-1.449 1.015H20.622c-.637 0-1.145-.392-1.449-1.015-.304-.623-.42-1.492-.246-2.448l1.26-7.143" stroke="#2B2B2B"/>
        <path d="M40.067 6.665h9.91c.957 0 1.87.188 2.696.55a7.093 7.093 0 0 1 2.202 1.479 6.93 6.93 0 0 1 1.478 2.202c.348.826.536 1.739.536 2.695v26.733c0 .956-.188 1.869-.536 2.695a7.094 7.094 0 0 1-1.478 2.202 6.928 6.928 0 0 1-2.202 1.478 6.933 6.933 0 0 1-2.695.536H10.335c-.956 0-1.869-.188-2.695-.536a7.092 7.092 0 0 1-2.202-1.478 6.927 6.927 0 0 1-1.478-2.202 6.934 6.934 0 0 1-.536-2.695V13.576c0-.956.188-1.869.536-2.695A6.928 6.928 0 0 1 5.438 8.68 6.928 6.928 0 0 1 7.64 7.201a6.943 6.943 0 0 1 2.695-.55h9.91" stroke="#2B2B2B"/>
        <path d="M38.72 6.926a4.755 4.755 0 0 1-4.753 4.752H26.36a4.755 4.755 0 0 1-4.753-4.752 4.755 4.755 0 0 1 4.753-4.753h7.607a4.755 4.755 0 0 1 4.752 4.753z" stroke="#2B2B2B"/>
        <path d="M38.72 25.646a4.755 4.755 0 0 1-4.753 4.752H26.36a4.755 4.755 0 0 1-4.753-4.752 4.755 4.755 0 0 1 4.753-4.752h7.607a4.755 4.755 0 0 1 4.752 4.752z" stroke="#46A6F7"/>
        <path d="M14.928 38.643h2.55M28.895 38.643h2.536M42.849 38.643h2.535" stroke="#2B2B2B"/>
    </g>
    <defs>
        <clipPath id="a1b7tpt27a">
            <path fill="#fff" transform="translate(1.25)" d="M0 0h57.812v60H0z"/>
        </clipPath>
    </defs>
</svg>
