<svg width="60" height="60" viewBox="0 0 60 60" fill="none" xmlns="http://www.w3.org/2000/svg">
    <path d="M15.173 8.109a5.567 5.567 0 0 1-5.564 5.564 5.567 5.567 0 0 1-5.564-5.564 5.567 5.567 0 0 1 5.564-5.564 5.567 5.567 0 0 1 5.564 5.564z" stroke="#D8A60D" stroke-width="3" stroke-linecap="round" stroke-linejoin="round"/>
    <path d="M22.586 8.109h33.672M15.173 29.991a5.567 5.567 0 0 1-5.564 5.565 5.567 5.567 0 0 1-5.564-5.564 5.567 5.567 0 0 1 5.564-5.565 5.567 5.567 0 0 1 5.564 5.564zM22.586 29.992h33.672M15.173 51.891a5.567 5.567 0 0 1-5.564 5.565 5.567 5.567 0 0 1-5.564-5.565 5.567 5.567 0 0 1 5.564-5.564 5.567 5.567 0 0 1 5.564 5.564zM22.586 51.892h33.672" stroke="#2B2B2B" stroke-width="3" stroke-linecap="round" stroke-linejoin="round"/>
</svg>
