<svg width="25" height="24" viewBox="0 0 25 24" fill="none" xmlns="http://www.w3.org/2000/svg">
    <mask id="bajmd44v6a" style="mask-type:alpha" maskUnits="userSpaceOnUse" x="0" y="0" width="25" height="24">
        <path fill="#D9D9D9" d="M.5 0h24v24H.5z"/>
    </mask>
    <g mask="url(#bajmd44v6a)">
        <path d="M11.5 20.43c-1.876-.243-3.428-1.07-4.657-2.478C5.614 16.542 5 14.892 5 13c0-1.017.2-1.99.602-2.922a7.59 7.59 0 0 1 1.686-2.455l1.07 1.07a5.522 5.522 0 0 0-1.39 1.95A6.003 6.003 0 0 0 6.5 13c0 1.467.468 2.76 1.405 3.878.936 1.119 2.135 1.803 3.595 2.053v1.5zm2 .02v-1.5c1.444-.292 2.638-.992 3.583-2.1.945-1.106 1.417-2.39 1.417-3.85 0-1.667-.583-3.083-1.75-4.25C15.583 7.583 14.167 7 12.5 7h-.354l1.35 1.35-1.054 1.054L9.288 6.25l3.154-3.154 1.054 1.054-1.35 1.35h.354c2.092 0 3.865.727 5.32 2.18C19.272 9.136 20 10.909 20 13c0 1.882-.616 3.524-1.848 4.927-1.232 1.402-2.783 2.244-4.652 2.523z" fill="#999"/>
    </g>
</svg>
