<svg width="61" height="60" viewBox="0 0 61 60" fill="none" xmlns="http://www.w3.org/2000/svg">
    <g clip-path="url(#kxj979aeba)" stroke-width="3" stroke-linecap="round" stroke-linejoin="round">
        <path d="M35.94 23.219V6.607c0-1.864-1.51-3.388-3.373-3.388h-9.468v12.84h-7.44V3.22H6.19a3.374 3.374 0 0 0-3.373 3.388v27.041a3.371 3.371 0 0 0 3.373 3.373h18.98" stroke="#2B2B2B"/>
        <path d="M23.1 3.219h-7.44v12.84h7.44V3.22z" stroke="#D8A60D"/>
        <path d="M54.993 23.012h-9.468v12.84h-7.44v-12.84h-9.468a3.375 3.375 0 0 0-3.373 3.387v27.042a3.371 3.371 0 0 0 3.373 3.373h26.36a3.371 3.371 0 0 0 3.374-3.373V26.399c0-1.864-1.51-3.387-3.373-3.387h.015z" stroke="#2B2B2B"/>
        <path d="M45.54 23.012H38.1v12.84h7.44v-12.84z" stroke="#D8A60D"/>
    </g>
    <defs>
        <clipPath id="kxj979aeba">
            <path fill="#fff" transform="translate(.6)" d="M0 0h60v60H0z"/>
        </clipPath>
    </defs>
</svg>
