<svg width="61" height="60" viewBox="0 0 61 60" fill="none" xmlns="http://www.w3.org/2000/svg">
    <path d="M58.407 30c0 15.419-12.489 27.907-27.907 27.907C15.08 57.907 2.593 45.419 2.593 30S15.08 2.093 30.5 2.093c15.418 0 27.907 12.488 27.907 27.907z" stroke="#2B2B2B" stroke-width="3" stroke-linecap="round" stroke-linejoin="round"/>
    <path d="M35.774 19.967a5.27 5.27 0 0 1-5.274 5.275 5.27 5.27 0 0 1-5.274-5.275 5.27 5.27 0 0 1 5.274-5.274 5.27 5.27 0 0 1 5.274 5.274zM35.342 30.879H25.66a4.565 4.565 0 0 0-4.563 4.563v8.79h18.809v-8.79a4.565 4.565 0 0 0-4.563-4.563z" stroke="#46A6F7" stroke-width="3" stroke-linecap="round" stroke-linejoin="round"/>
</svg>
