<svg width="61" height="60" viewBox="0 0 61 60" fill="none" xmlns="http://www.w3.org/2000/svg">
    <g clip-path="url(#eza6hdj4qa)" stroke-width="3" stroke-linecap="round" stroke-linejoin="round">
        <path d="M19.696 18.335a6.582 6.582 0 0 1-6.585 6.585 6.582 6.582 0 0 1-6.586-6.585 6.582 6.582 0 0 1 6.586-6.586 6.582 6.582 0 0 1 6.585 6.586zM54.475 18.335a6.582 6.582 0 0 1-6.585 6.585 6.582 6.582 0 0 1-6.585-6.585 6.582 6.582 0 0 1 6.585-6.586 6.582 6.582 0 0 1 6.585 6.586zM22.882 35.424c-1.613-3.799-5.372-6.478-9.771-6.478-5.852 0-10.611 4.745-10.611 10.61v6.12h15.716M42.784 45.689H58.5V39.57c0-5.852-4.745-10.61-10.61-10.61-4.386 0-8.159 2.665-9.772 6.478" stroke="#2B2B2B"/>
        <path d="M37.079 21.56a6.582 6.582 0 0 1-6.586 6.586 6.582 6.582 0 0 1-6.585-6.585 6.582 6.582 0 0 1 6.585-6.585 6.582 6.582 0 0 1 6.586 6.585z" stroke="#46A6F7"/>
        <path d="M38.119 35.424c-1.933-2-4.626-3.239-7.625-3.239-3 0-5.692 1.253-7.625 3.24-1.84 1.906-2.986 3.465-2.986 6.331v7.159H41.09v-7.159c0-2.866-1.146-4.425-2.986-6.332h.014z" stroke="#2B2B2B"/>
    </g>
    <defs>
        <clipPath id="eza6hdj4qa">
            <path fill="#fff" transform="translate(.5 9.75)" d="M0 0h60v41.164H0z"/>
        </clipPath>
    </defs>
</svg>
