<svg width="61" height="60" viewBox="0 0 61 60" fill="none" xmlns="http://www.w3.org/2000/svg">
    <g clip-path="url(#o9z9jd7sta)" stroke-width="3" stroke-linecap="round" stroke-linejoin="round">
        <path d="M6.953 34.166h17.158c1.081 0 1.952.87 1.952 1.951v13.51c0 1.081-.87 1.952-1.952 1.952H6.953c-1.08 0-1.951-.87-1.951-1.952V36.132c0-1.08.87-1.951 1.951-1.951v-.015z" stroke="#333"/>
        <path d="M11.231 57.748h8.602M37.471 34.166h17.173c1.08 0 1.951.87 1.951 1.951v13.51c0 1.081-.87 1.952-1.951 1.952H37.47c-1.08 0-1.951-.87-1.951-1.952V36.132c0-1.08.87-1.951 1.951-1.951v-.015zM41.749 57.748h8.601" stroke="#2B2B2B"/>
        <path d="M22.205 2.252h17.158c1.08 0 1.951.87 1.951 1.951v13.51c0 1.081-.87 1.952-1.951 1.952H22.19c-1.081 0-1.952-.87-1.952-1.952V4.203c0-1.08.87-1.951 1.952-1.951h.015zM26.498 25.85h8.586" stroke="#D8A60D"/>
    </g>
    <defs>
        <clipPath id="o9z9jd7sta">
            <path fill="#fff" transform="translate(2.75)" d="M0 0h56.097v60H0z"/>
        </clipPath>
    </defs>
</svg>
