<svg width="61" height="60" viewBox="0 0 61 60" fill="none" xmlns="http://www.w3.org/2000/svg">
    <path d="M51.483 9.16H9.317a6.756 6.756 0 0 0-6.756 6.757V43.26a6.756 6.756 0 0 0 6.756 6.757h42.166a6.756 6.756 0 0 0 6.756-6.757V15.917a6.756 6.756 0 0 0-6.756-6.756z" stroke="#D8A60D" stroke-width="3" stroke-linecap="round" stroke-linejoin="round"/>
    <path d="M47.693 38.909v-.476M47.693 32.253v-8.211M36.169 38.909v-.476M36.169 32.253V20.268M24.63 38.909v-.476M24.63 32.253v-8.211M13.105 38.909v-.476M13.105 32.253V21.218" stroke="#2B2B2B" stroke-width="3" stroke-linecap="round" stroke-linejoin="round"/>
</svg>
