<svg width="61" height="60" viewBox="0 0 61 60" fill="none" xmlns="http://www.w3.org/2000/svg">
    <path d="M50.74 15.248a9.241 9.241 0 0 1-9.248 9.248 9.242 9.242 0 0 1-9.248-9.248c0-5.113 4.15-9.248 9.248-9.248 5.098 0 9.248 4.135 9.248 9.248z" stroke="#AD2024" stroke-width="3" stroke-linecap="round" stroke-linejoin="round"/>
    <path d="M35.493 53.805h22.496V38.376c0-4.421-3.579-8-8-8H32.997c-.963 0-1.895.18-2.752.496" stroke="#333" stroke-width="3" stroke-linecap="round" stroke-linejoin="round"/>
    <path d="M30.244 30.857a7.908 7.908 0 0 0-2.752-.496H10.5c-4.421 0-8 3.579-8 8v15.428h32.992V38.361c0-3.444-2.195-6.391-5.248-7.504zM28.245 15.248a9.241 9.241 0 0 1-9.248 9.248 9.241 9.241 0 0 1-9.248-9.248A9.241 9.241 0 0 1 18.997 6a9.241 9.241 0 0 1 9.248 9.248z" stroke="#333" stroke-width="3" stroke-linecap="round" stroke-linejoin="round"/>
</svg>
