<svg width="61" height="60" viewBox="0 0 61 60" fill="none" xmlns="http://www.w3.org/2000/svg">
    <path d="M26.682 22.894a3.243 3.243 0 0 0-3.234-3.234H18.59c-1.772 0-4.209 1.078-5.42 2.378L4.9 31.046c-1.196 1.314-2.185 3.84-2.185 5.611v5.597a3.243 3.243 0 0 0 3.234 3.234h5.301" stroke="#2B2B2B" stroke-width="3" stroke-linecap="round" stroke-linejoin="round"/>
    <path d="M50.015 45.754h5.036a3.252 3.252 0 0 0 3.234-3.234V11.45a3.252 3.252 0 0 0-3.234-3.235H29.902a3.252 3.252 0 0 0-3.234 3.234v33.685M36.207 45.754h-12.05" stroke="#2B2B2B" stroke-width="3" stroke-linecap="round" stroke-linejoin="round"/>
    <path d="M22.903 45.488c-.266-2.983-2.747-5.331-5.804-5.331-3.057 0-5.538 2.348-5.804 5.331-.014.177-.059.354-.059.532a5.868 5.868 0 0 0 5.863 5.862 5.868 5.868 0 0 0 5.863-5.862c0-.178-.045-.355-.06-.532zM48.937 45.754c-.148-3.116-2.688-5.597-5.833-5.597-3.146 0-5.686 2.48-5.833 5.597 0 .088-.03.177-.03.266a5.868 5.868 0 0 0 5.863 5.862 5.868 5.868 0 0 0 5.863-5.862c0-.089-.03-.178-.03-.266z" stroke="#D8A60D" stroke-width="3" stroke-linecap="round" stroke-linejoin="round"/>
    <path d="M4.546 33.88h8.151" stroke="#2B2B2B" stroke-width="3" stroke-linecap="round" stroke-linejoin="round"/>
</svg>
