<svg width="61" height="60" viewBox="0 0 61 60" fill="none" xmlns="http://www.w3.org/2000/svg">
    <path d="M54.573 16.098C49.773 7.784 40.788 2.194 30.5 2.194V30l24.073-13.902z" stroke="#46A6F7" stroke-width="3" stroke-linecap="round" stroke-linejoin="round"/>
    <path d="M23.08 3.205a27.52 27.52 0 0 0-6.672 2.839 27.38 27.38 0 0 0-5.635 4.39 27.84 27.84 0 0 0-5.926 8.868 29.968 29.968 0 0 0-1.171 3.396 28.806 28.806 0 0 0-.732 3.585 28.54 28.54 0 0 0-.249 3.732c0 1.258.088 2.517.25 3.731.16 1.215.409 2.415.73 3.586.323 1.17.703 2.297 1.172 3.395a27.838 27.838 0 0 0 5.927 8.868 27.776 27.776 0 0 0 5.633 4.39 27.236 27.236 0 0 0 6.674 2.825 27.792 27.792 0 0 0 14.854 0 28.319 28.319 0 0 0 6.672-2.825 27.38 27.38 0 0 0 5.635-4.39 27.84 27.84 0 0 0 5.927-8.868 29.97 29.97 0 0 0 1.17-3.395c.322-1.171.556-2.356.732-3.586.16-1.214.249-2.473.249-3.731 0-1.259-.088-2.518-.25-3.732a26.831 26.831 0 0 0-.73-3.585" stroke="#2B2B2B" stroke-width="3" stroke-linecap="round" stroke-linejoin="round"/>
</svg>
