<svg width="61" height="60" viewBox="0 0 61 60" fill="none" xmlns="http://www.w3.org/2000/svg">
    <g clip-path="url(#34ixpr7e5a)">
        <g clip-path="url(#p7jytdxohb)" stroke-width="3" stroke-linecap="round" stroke-linejoin="round">
            <path d="M2.832 2.332V57.59M58.168 2.332V57.59M23.94 18.73a5.625 5.625 0 0 1-5.627 5.628 5.626 5.626 0 0 1-5.626-5.627 5.626 5.626 0 0 1 5.627-5.627 5.626 5.626 0 0 1 5.626 5.627zM25.106 18.73H35.88M48.065 18.73h8.424M4.51 18.73h8.426M48.298 41.207a5.625 5.625 0 0 1-5.627 5.627 5.626 5.626 0 0 1-5.627-5.627 5.626 5.626 0 0 1 5.627-5.627 5.626 5.626 0 0 1 5.627 5.627zM25.106 41.207H35.88M48.065 41.207h8.424M4.51 41.207h8.426" stroke="#2B2B2B"/>
            <path d="M48.298 18.73a5.625 5.625 0 0 1-5.627 5.628 5.626 5.626 0 0 1-5.627-5.627 5.626 5.626 0 0 1 5.627-5.627 5.626 5.626 0 0 1 5.627 5.627zM23.94 41.207a5.625 5.625 0 0 1-5.627 5.627 5.626 5.626 0 0 1-5.626-5.627 5.626 5.626 0 0 1 5.627-5.627 5.626 5.626 0 0 1 5.626 5.627z" stroke="#46A6F7"/>
        </g>
    </g>
    <defs>
        <clipPath id="34ixpr7e5a">
            <path fill="#fff" transform="translate(.5)" d="M0 0h60v60H0z"/>
        </clipPath>
        <clipPath id="p7jytdxohb">
            <path fill="#fff" transform="translate(.5)" d="M0 0h60v59.922H0z"/>
        </clipPath>
    </defs>
</svg>
